<svg version="1.1" id="Layer_1" xmlns="http://www.w3.org/2000/svg"
	 width="612px" height="792px" viewBox="0 0 612 792">
<g>
	<polygon fill-rule="evenodd" clip-rule="evenodd" fill="#FFFFFF" points="209,300 401.756,300 401.756,492.756 209,492.756 
		209,300"/>
	<path fill-rule="evenodd" clip-rule="evenodd" d="M304.597,446.695c37.711,0,68.283-26.777,68.283-59.808
		c0-33.03-30.572-59.807-68.283-59.807c-37.712,0-68.284,26.777-68.284,59.807C236.313,419.918,266.885,446.695,304.597,446.695
		L304.597,446.695z"/>
	<path fill-rule="evenodd" clip-rule="evenodd" d="M232.312,346.92c0.984,0.612,0.752,1.479,0.356,2.456
		c-0.458,1.079-0.548,1.565-0.509,1.918l-1.154-0.717c-1.104-0.685-1.119-2.176-0.465-3.229
		C230.825,346.892,231.48,346.404,232.312,346.92l1.322-2.471c-1.867-1.159-3.495-0.241-4.338,1.117
		c-1.001,1.613-0.729,2.84-0.506,3.731c-0.541-0.265-0.697-0.316-1.206-0.443l-1.592,2.563l0.357,0.222
		c0.281-0.226,0.667-0.316,1.735,0.348l4.889,3.035c2.224,1.381,4.058-0.702,4.848-1.976c1.149-1.851,1.949-4.011-0.649-6
		l-1.422,2.292c0.484,0.395,1.088,1.052,0.35,2.24c-0.379,0.611-1.02,1.53-2.021,0.909c-0.509-0.316-0.377-0.869-0.197-1.274
		l1.005-2.339c0.717-1.648,0.513-3.327-1.253-4.423L232.312,346.92L232.312,346.92z"/>
	<path fill-rule="evenodd" clip-rule="evenodd" d="M219.016,369.375l0.909-2.645l6.103,2.097c1.493,0.513,2.212,0.021,2.478-0.754
		c0.454-1.323-0.252-2.094-1.443-2.503l-6.027-2.071l0.909-2.646l6.046,2.078c0.85,0.292,2.041,0.701,2.586-0.886
		c0.429-1.247-0.304-1.943-1.4-2.319l-6.122-2.104l0.909-2.646l10.052,3.455l-0.87,2.532l-1.474-0.506l-0.013,0.038
		c0.544,0.567,1.368,1.674,0.758,3.451c-0.5,1.455-1.257,1.935-2.567,2.245c0.375,0.509,1.236,1.629,0.684,3.235
		c-0.675,1.965-2.354,3.1-4.565,2.34L219.016,369.375L219.016,369.375z"/>
	<path fill-rule="evenodd" clip-rule="evenodd" d="M221.955,383.725l0.497,0.051c4.83,0.501,6.123-2.278,6.339-4.365
		c0.479-4.631-3.549-5.491-4.821-5.623c-4.353-0.451-6.021,1.687-6.33,4.667c-0.188,1.809,0.429,4.002,2.897,5.001l0.296-2.862
		c-0.732-0.297-1.047-1.133-0.967-1.908c0.233-2.246,2.039-2.22,2.842-2.217l1.8,0.267c1.375,0.303,2.137,1.086,2.001,2.397
		c-0.093,0.895-0.723,1.934-2.449,1.916l0.447-4.313l-1.8-0.267L221.955,383.725L221.955,383.725z"/>
	<path fill-rule="evenodd" clip-rule="evenodd" d="M228.122,386.125l0.125,2.674l-1.836,0.086l0.002,0.04
		c1.105,0.529,2.173,1.118,2.252,2.815c0.008,0.18-0.003,0.36-0.015,0.541l-2.834,0.133c0.029-0.242,0.015-0.541,0.002-0.8
		c-0.102-2.175-1.478-2.511-2.656-2.456l-5.529,0.259l-0.131-2.794L228.122,386.125L228.122,386.125z"/>
	<polygon fill-rule="evenodd" clip-rule="evenodd" points="229.11,396.639 218.606,398.258 218.18,395.493 228.685,393.875 
		229.11,396.639 	"/>
	<polygon fill-rule="evenodd" clip-rule="evenodd" points="230.354,396.448 229.928,393.684 232.495,393.288 232.921,396.052 
		230.354,396.448 	"/>
	<path fill-rule="evenodd" clip-rule="evenodd" d="M225.568,409.869c-1.082,0.211-4.257,0.242-5.348-3.496
		c-1.119-3.836,1.558-5.574,3.705-6.201c3.299-0.963,6.078-0.213,7.085,3.24c0.47,1.611,0.513,4.469-2.598,5.648l-0.794-2.725
		c0.638-0.311,1.569-1.039,1.129-2.264c-0.493-1.688-2.309-1.637-3.575-1.268c-1.112,0.324-3.307,1.006-2.713,3.039
		c0.397,1.361,1.835,1.441,2.315,1.301L225.568,409.869L225.568,409.869z"/>
	<path fill-rule="evenodd" clip-rule="evenodd" d="M226.805,414.85c1.042-0.508,1.651,0.152,2.267,1.008
		c0.668,0.963,1.031,1.299,1.351,1.453l-1.222,0.596c-1.168,0.566-2.437-0.217-2.979-1.33
		C225.987,416.092,225.925,415.277,226.805,414.85l-1.385-2.438c-1.976,0.961-2.069,2.828-1.37,4.266
		c0.83,1.707,2.014,2.131,2.886,2.418c-0.513,0.316-0.639,0.422-1.019,0.783l1.319,2.713l0.377-0.184
		c-0.041-0.357,0.088-0.73,1.22-1.281l5.175-2.516c2.354-1.145,1.57-3.807,0.915-5.156c-0.952-1.957-2.353-3.787-5.421-2.65
		l1.18,2.426c0.591-0.199,1.469-0.359,2.081,0.898c0.314,0.646,0.75,1.68-0.311,2.195c-0.539,0.262-0.937-0.145-1.183-0.514
		l-1.441-2.098c-1.011-1.486-2.54-2.209-4.409-1.301L226.805,414.85L226.805,414.85z"/>
	<path fill-rule="evenodd" clip-rule="evenodd" d="M234.647,433.422l-1.626-2.275l5.249-3.754c0.634-0.453,1.684-1.252,0.649-2.699
		c-0.721-1.008-1.961-1.299-3.277-0.357l-4.957,3.543l-1.626-2.275l8.646-6.182l1.557,2.178l-1.268,0.906l0.023,0.033
		c0.741-0.063,2.181-0.109,3.354,1.531c1.208,1.689,1.158,3.715-0.744,5.074L234.647,433.422L234.647,433.422z"/>
	<path fill-rule="evenodd" clip-rule="evenodd" d="M250.749,441.984c-0.821,0.953-2.477,2.113-3.84,0.939
		c-1.348-1.16-0.914-2.736,0.116-3.934c1.107-1.287,2.592-2.277,4.046-1.025C252.418,439.125,251.843,440.713,250.749,441.984
		l2.311,1.725c2.398-2.787,1.995-5.506,0.223-7.029c-1.363-1.174-2.638-0.979-3.414-0.75l-0.03-0.025l3.323-3.863l-2.121-1.824
		l-9.356,10.875l2.075,1.785l0.873-1.016l0.03,0.027c-0.267,1.352,0.399,2.477,1.277,3.234c2.393,2.059,5.217,0.797,7.12-1.414
		L250.749,441.984L250.749,441.984z"/>
	<path fill-rule="evenodd" clip-rule="evenodd" d="M255.654,448.346c0.618-0.98,1.483-0.742,2.458-0.34
		c1.076,0.465,1.561,0.559,1.915,0.521l-0.725,1.15c-0.692,1.098-2.183,1.102-3.231,0.441
		C255.614,449.832,255.132,449.174,255.654,448.346l-2.462-1.34c-1.172,1.859-0.266,3.492,1.086,4.346
		c1.605,1.012,2.834,0.748,3.727,0.531c-0.269,0.539-0.32,0.695-0.452,1.203l2.552,1.607l0.224-0.354
		c-0.224-0.283-0.311-0.668,0.36-1.732l3.069-4.867c1.396-2.215-0.675-4.063-1.942-4.861c-1.842-1.162-3.997-1.977-6.004,0.607
		l2.281,1.438c0.398-0.48,1.059-1.08,2.242-0.334c0.609,0.385,1.523,1.031,0.895,2.027c-0.32,0.508-0.872,0.373-1.276,0.188
		l-2.332-1.02c-1.643-0.729-3.322-0.537-4.431,1.221L255.654,448.346L255.654,448.346z"/>
	<path fill-rule="evenodd" clip-rule="evenodd" d="M271.868,454.449c-0.513,1.148-1.767,2.734-3.409,2.002
		c-1.624-0.725-1.642-2.352-0.999-3.793c0.692-1.551,1.812-2.934,3.563-2.152C272.648,451.23,272.552,452.916,271.868,454.449
		l2.709,0.99c1.498-3.357,0.333-5.848-1.802-6.799c-1.715-0.766-2.826-0.189-3.642,0.365l-0.037-0.016l0.627-1.406l-2.445-1.09
		l-6.016,13.484l2.554,1.139l2.239-5.018l0.037,0.018c0.074,0.666,0.281,1.918,2.069,2.717c2.883,1.285,5.227-0.732,6.416-3.395
		L271.868,454.449L271.868,454.449z"/>
	<path fill-rule="evenodd" clip-rule="evenodd" d="M281.479,452.115l1.657,0.523l-0.603,1.904l-1.657-0.523l-1.744,5.504
		c-0.187,0.592-0.241,0.826,0.845,1.17c0.171,0.055,0.368,0.096,0.564,0.137l-0.639,2.02c-0.425-0.115-0.85-0.229-1.27-0.361
		l-0.342-0.107c-2.305-0.73-2.447-1.74-2.03-3.053l1.948-6.154l-1.372-0.434l0.603-1.904l1.372,0.434l0.869-2.742l2.667,0.844
		L281.479,452.115L281.479,452.115z"/>
	<polygon fill-rule="evenodd" clip-rule="evenodd" points="287.599,453.723 285.124,464.059 282.403,463.406 284.879,453.07 
		287.599,453.723 	"/>
	<polygon fill-rule="evenodd" clip-rule="evenodd" points="287.892,452.498 285.172,451.846 285.777,449.32 288.497,449.973 
		287.892,452.498 	"/>
	<path fill-rule="evenodd" clip-rule="evenodd" d="M295.637,458.373c-0.025-0.689-0.164-1.436-1.667-1.645s-1.782,0.338-1.845,0.793
		c-0.231,1.662,6.526,1.373,5.986,5.25c-0.427,3.068-3.473,3.209-5.115,2.98c-2.394-0.334-4.871-1.525-4.559-4.348l2.85,0.396
		c-0.124,0.891,0.339,1.621,2.081,1.863c1.425,0.199,1.857-0.447,1.913-0.842c0.246-1.762-6.47-1.346-5.921-5.283
		c0.215-1.543,1.46-3.387,4.745-2.93c2.058,0.287,4.44,1.143,4.244,4.141L295.637,458.373L295.637,458.373z"/>
	<path fill-rule="evenodd" clip-rule="evenodd" d="M304.208,455.74l1.737,0.064l-0.074,1.996l-1.737-0.064l-0.215,5.77
		c-0.023,0.619-0.012,0.859,1.125,0.902c0.18,0.006,0.381-0.006,0.581-0.02l-0.079,2.117c-0.44,0.004-0.88,0.008-1.319-0.01
		l-0.359-0.014c-2.416-0.09-2.821-1.025-2.769-2.402l0.241-6.449l-1.438-0.053l0.075-1.996l1.437,0.053l0.107-2.875l2.795,0.105
		L304.208,455.74L304.208,455.74z"/>
	<path fill-rule="evenodd" clip-rule="evenodd" d="M341.743,453.734c0.33,1.053,0.71,4.205-2.889,5.701
		c-3.69,1.533-5.712-0.936-6.571-3.002c-1.318-3.174-0.878-6.02,2.443-7.398c1.55-0.645,4.387-1.002,5.9,1.961l-2.62,1.088
		c-0.38-0.6-1.207-1.445-2.376-0.873c-1.623,0.676-1.373,2.475-0.866,3.693c0.444,1.07,1.363,3.176,3.318,2.363
		c1.311-0.545,1.231-1.982,1.04-2.443L341.743,453.734L341.743,453.734z"/>
	<path fill-rule="evenodd" clip-rule="evenodd" d="M354.587,450.85l-2.405,1.426l-3.292-5.549c-0.397-0.67-1.105-1.783-2.634-0.877
		c-1.065,0.633-1.462,1.844-0.637,3.234l3.109,5.242l-2.405,1.426l-7.319-12.336l2.405-1.428l2.6,4.383l0.034-0.021
		c-0.139-0.939,0.494-2.221,1.8-2.996c1.787-1.059,3.801-0.838,4.993,1.174L354.587,450.85L354.587,450.85z"/>
	<path fill-rule="evenodd" clip-rule="evenodd" d="M365.479,442.293l-2.067,1.703l-0.952-1.158l-0.03,0.025
		c0.23,1.287-0.228,2.49-1.369,3.43c-1.619,1.334-3.554,1.373-5.28-0.725l-4.444-5.398l2.159-1.777l4.19,5.09
		c1.041,1.266,1.985,0.902,2.648,0.357c0.709-0.586,1.335-1.773,0.129-3.238l-3.898-4.736l2.159-1.777L365.479,442.293
		L365.479,442.293z"/>
	<path fill-rule="evenodd" clip-rule="evenodd" d="M360.681,432.004l1.823-1.961l1.347,1.252l0.027-0.029
		c-0.396-1.158-0.721-2.334,0.436-3.578c0.123-0.131,0.26-0.25,0.396-0.367l2.077,1.932c-0.192,0.148-0.396,0.367-0.573,0.559
		c-1.483,1.594-0.761,2.813,0.103,3.615l4.052,3.768l-1.905,2.049L360.681,432.004L360.681,432.004z"/>
	<path fill-rule="evenodd" clip-rule="evenodd" d="M376.805,422.66c0.836,0.721,2.822,3.199,0.556,6.367
		c-2.324,3.25-5.345,2.219-7.165,0.916c-2.795-1.998-3.922-4.646-1.829-7.57c0.976-1.365,3.197-3.166,6.046-1.447l-1.65,2.307
		c-0.639-0.311-1.788-0.592-2.479,0.512c-1.022,1.43,0.141,2.826,1.213,3.594c0.942,0.674,2.835,1.979,4.066,0.256
		c0.825-1.154-0.001-2.334-0.407-2.625L376.805,422.66L376.805,422.66z"/>
	<path fill-rule="evenodd" clip-rule="evenodd" d="M385.614,414.525l-1.276,2.488l-5.741-2.945c-0.693-0.355-1.884-0.922-2.696,0.66
		c-0.565,1.102-0.257,2.338,1.184,3.076l5.421,2.781l-1.277,2.488l-12.762-6.549l1.277-2.486l4.532,2.324l0.019-0.035
		c-0.618-0.721-0.765-2.145-0.071-3.494c0.948-1.848,2.771-2.732,4.851-1.664L385.614,414.525L385.614,414.525z"/>
	<path fill-rule="evenodd" clip-rule="evenodd" d="M385.443,401.297l-0.476-0.154c-4.617-1.498-6.462,0.949-7.109,2.943
		c-1.437,4.428,2.323,6.109,3.539,6.506c4.161,1.35,6.238-0.393,7.164-3.242c0.561-1.729,0.416-4.002-1.787-5.494l-0.889,2.736
		c0.654,0.443,0.788,1.326,0.547,2.068c-0.696,2.146-2.456,1.742-3.24,1.572l-1.705-0.637c-1.28-0.584-1.863-1.508-1.456-2.762
		c0.277-0.855,1.111-1.74,2.795-1.361l-1.339,4.123l1.705,0.637L385.443,401.297L385.443,401.297z"/>
	<path fill-rule="evenodd" clip-rule="evenodd" d="M383.961,393.481c-0.689,0.012-1.438,0.135-1.676,1.635
		c-0.239,1.5,0.302,1.787,0.756,1.859c1.656,0.264,1.499-6.497,5.366-5.881c3.058,0.486,3.139,3.534,2.878,5.171
		c-0.379,2.387-1.619,4.84-4.434,4.473l0.452-2.842c0.888,0.141,1.627-0.307,1.903-2.043c0.226-1.42-0.411-1.866-0.806-1.929
		c-1.756-0.279-1.471,6.441-5.396,5.816c-1.539-0.244-3.358-1.525-2.837-4.8c0.327-2.052,1.229-4.417,4.223-4.163L383.961,393.481
		L383.961,393.481z"/>
	<path fill-rule="evenodd" clip-rule="evenodd" d="M387.193,371.928c3.753-0.414,5.611,1.672,6.009,5.267
		c0.145,1.311,0.042,3.292-1.228,4.719c-0.789,0.871-1.908,1.296-3.333,1.494l-9.453,1.043l-0.336-3.038l9.255-1.022
		c1.986-0.22,2.732-1.468,2.579-2.858c-0.226-2.045-1.311-2.77-3.038-2.579l-9.395,1.037l-0.335-3.038L387.193,371.928
		L387.193,371.928z"/>
	<path fill-rule="evenodd" clip-rule="evenodd" d="M386.172,365.907c0.751-0.274,2.063-1.137,1.229-3.617
		c-0.452-1.345-1.277-2.732-2.717-2.248c-1.061,0.356-1,1.475-0.857,3.029l0.149,1.573c0.228,2.369,0.449,4.655-2.543,5.662
		c-1.515,0.51-4.459,0.593-5.942-3.819c-1.402-4.166,0.949-6.2,2.609-6.78l0.917,2.727c-0.58,0.28-1.943,0.991-1.108,3.472
		c0.362,1.08,1.193,2.234,2.425,1.819c1.06-0.356,0.994-1.304,0.936-1.917l-0.3-3.588c-0.17-2.008,0.015-3.968,2.457-4.789
		c4.091-1.376,5.852,2.669,6.253,3.862c1.669,4.961-0.904,6.775-2.589,7.342L386.172,365.907L386.172,365.907z"/>
	<polygon fill-rule="evenodd" clip-rule="evenodd" points="378.888,346.501 380.958,344.2 379.293,341.401 369.55,353.081 
		371.318,356.051 386.262,353.111 384.646,350.397 381.595,351.052 379.057,351.631 373.241,352.954 373.221,352.919 
		377.188,348.49 379.057,351.631 381.595,351.052 378.888,346.501 	"/>
	<path fill-rule="evenodd" clip-rule="evenodd" fill="#FFFFFF" d="M304.597,422.6c11.63,0,21.981,4.766,28.617,12.174
		c5.534-3.225,10.567-7.357,14.678-12.18c-10.826-8.98-26.219-14.592-43.295-14.592c-17.077,0-32.469,5.611-43.295,14.592
		c4.11,4.822,9.143,8.955,14.677,12.18C282.615,427.365,292.966,422.6,304.597,422.6L304.597,422.6z"/>
	<path fill-rule="evenodd" clip-rule="evenodd" fill="#FFFFFF" d="M304.597,442.457c7.851,0,15.325-1.486,22.119-4.332
		c-4.964-6.838-13.022-11.287-22.119-11.287c-9.097,0-17.156,4.449-22.12,11.287C289.271,440.971,296.746,442.457,304.597,442.457
		L304.597,442.457z"/>
	<path fill-rule="evenodd" clip-rule="evenodd" fill="#FFFFFF" d="M304.597,351.175c11.63,0,21.981-4.765,28.617-12.173
		c5.534,3.223,10.567,7.357,14.678,12.179c-10.826,8.981-26.219,14.592-43.295,14.592c-17.077,0-32.469-5.611-43.295-14.592
		c4.11-4.821,9.143-8.956,14.677-12.179C282.615,346.41,292.966,351.175,304.597,351.175L304.597,351.175z"/>
	<path fill-rule="evenodd" clip-rule="evenodd" fill="#FFFFFF" d="M304.597,331.319c7.851,0,15.325,1.485,22.119,4.331
		c-4.964,6.839-13.022,11.287-22.119,11.287c-9.097,0-17.156-4.448-22.12-11.287C289.271,332.804,296.746,331.319,304.597,331.319
		L304.597,331.319z"/>
	<path fill-rule="evenodd" clip-rule="evenodd" fill="#FFFFFF" d="M361.107,386.888c0-10.703-3.249-20.775-8.581-29.256
		c-12.906,7.426-29.643,11.909-47.93,11.909s-35.023-4.483-47.931-11.909c-5.332,8.48-8.58,18.553-8.58,29.256
		c0,10.702,3.248,20.774,8.58,29.255c12.907-7.426,29.644-11.908,47.931-11.908s35.023,4.482,47.93,11.908
		C357.858,407.662,361.107,397.59,361.107,386.888L361.107,386.888z"/>
	<path fill-rule="evenodd" clip-rule="evenodd" d="M316.251,321.621c1.998,15.983,1.665,56.276,1.665,64.934
		c0,8.658-0.999,77.92-0.999,89.574c2.997-2.996,8.99-5.994,10.989-6.66c-1.332-14.984-2.332-71.594-2.332-83.58
		c0-11.988,1-60.938,1.665-69.262C323.909,319.623,318.249,320.622,316.251,321.621L316.251,321.621z"/>
	<path fill-rule="evenodd" clip-rule="evenodd" d="M276.292,384.224c6.327-0.333,38.96-1.332,44.288-1.332
		c5.327,0,28.637,0.999,35.63,1.665c2.664-1.998,6.66-7.992,8.658-8.991c-8.991,0.666-39.294,0.333-44.621,0.333
		c-5.328,0-34.631-0.333-37.628-0.666C280.621,377.564,277.957,382.559,276.292,384.224L276.292,384.224z"/>
</g>
</svg>
