<?xml version="1.0" encoding="UTF-8"?>
<svg width="200px" height="63px" viewBox="0 0 89 28" version="1.1" xmlns="http://www.w3.org/2000/svg" xmlns:xlink="http://www.w3.org/1999/xlink">
    <!-- Generator: Sketch 51.2 (57519) - http://www.bohemiancoding.com/sketch -->
    <title>Google_Play_Badge</title>
    <desc>Created with Sketch.</desc>
    <defs>
        <linearGradient x1="91.4895098%" y1="4.9604069%" x2="-38.3173161%" y2="71.909245%" id="linearGradient-1">
            <stop stop-color="#00A0FF" offset="0%"></stop>
            <stop stop-color="#00A1FF" offset="0.66%"></stop>
            <stop stop-color="#00BEFF" offset="26.01%"></stop>
            <stop stop-color="#00D2FF" offset="51.22%"></stop>
            <stop stop-color="#00DFFF" offset="76.04%"></stop>
            <stop stop-color="#00E3FF" offset="100%"></stop>
        </linearGradient>
        <linearGradient x1="107.585647%" y1="50.0163647%" x2="-130.492257%" y2="50.0163647%" id="linearGradient-2">
            <stop stop-color="#FFE000" offset="0%"></stop>
            <stop stop-color="#FFBD00" offset="40.87%"></stop>
            <stop stop-color="#FFA500" offset="77.54%"></stop>
            <stop stop-color="#FF9C00" offset="100%"></stop>
        </linearGradient>
        <linearGradient x1="86.237735%" y1="117.851014%" x2="-50.1313759%" y2="294.785269%" id="linearGradient-3">
            <stop stop-color="#FF3A44" offset="0%"></stop>
            <stop stop-color="#C31162" offset="100%"></stop>
        </linearGradient>
        <linearGradient x1="-18.8012883%" y1="-154.171052%" x2="42.0936259%" y2="-75.1365546%" id="linearGradient-4">
            <stop stop-color="#32A071" offset="0%"></stop>
            <stop stop-color="#2DA771" offset="6.85%"></stop>
            <stop stop-color="#15CF74" offset="47.62%"></stop>
            <stop stop-color="#06E775" offset="80.09%"></stop>
            <stop stop-color="#00F076" offset="100%"></stop>
        </linearGradient>
    </defs>
    <g id="Page-1" stroke="none" stroke-width="1" fill="none" fill-rule="evenodd">
        <g id="People-Page" transform="translate(-1146.000000, -4611.000000)" fill-rule="nonzero">
            <g id="Feature-Grid-Reversed" transform="translate(-2.000000, 3927.000000)">
                <g id="Text-block" transform="translate(1035.000000, 537.000000)">
                    <g id="Google_Play_Badge" transform="translate(113.000000, 147.000000)">
                        <g id="g10" transform="translate(44.493083, 14.226424) scale(-1, 1) rotate(-180.000000) translate(-44.493083, -14.226424) translate(0.210255, 0.549657)">
                            <g id="g12" transform="translate(0.568365, 0.000000)">
                                <path d="M84.2569193,0.605312055 L3.25552129,0.605312055 C1.47430055,0.605312055 0.0154653737,2.09333127 0.0154653737,3.91018538 L0.0154653737,23.7394253 C0.0154653737,25.5562794 1.47430055,27.0442986 3.25552129,27.0442986 L84.2569193,27.0442986 C86.03814,27.0442986 87.4969752,25.5562794 87.4969752,23.7394253 L87.4969752,3.91018538 C87.4969752,2.09333127 86.03814,0.605312055 84.2569193,0.605312055 Z" id="path14" fill="#000000"></path>
                                <path d="M84.2569193,26.5146927 C85.7570652,26.5146927 86.9777562,25.2695817 86.9777562,23.7394253 L86.9777562,3.91018538 C86.9777562,2.38002903 85.7570652,1.134918 84.2569193,1.134918 L3.25552129,1.134918 C1.7553754,1.134918 0.534684335,2.38002903 0.534684335,3.91018538 L0.534684335,23.7394253 C0.534684335,25.2695817 1.7553754,26.5146927 3.25552129,26.5146927 L84.2569193,26.5146927 Z M84.2569193,27.0442986 L3.25552129,27.0442986 C1.47430055,27.0442986 0.0154653737,25.5562794 0.0154653737,23.7394253 L0.0154653737,3.91018538 C0.0154653737,2.09333127 1.47430055,0.605312055 3.25552129,0.605312055 L84.2569193,0.605312055 C86.03814,0.605312055 87.4969752,2.09333127 87.4969752,3.91018538 L87.4969752,23.7394253 C87.4969752,25.5562794 86.03814,27.0442986 84.2569193,27.0442986 Z" id="path16" fill="#A6A6A6"></path>
                                <g id="g18" transform="translate(28.770962, 20.434552) scale(-1, 1) rotate(-180.000000) translate(-28.770962, -20.434552) translate(26.745927, 17.955897)" fill="#FFFFFF" stroke="#FFFFFF" stroke-width="0.625">
                                    <path d="M3.99660898,2.63976757 C3.99660898,3.19168141 3.83460618,3.63370822 3.51546067,3.96336933 C3.14852434,4.3541706 2.67061609,4.55081056 2.08497598,4.55081056 C1.52525632,4.55081056 1.04734808,4.35086573 0.65530131,3.95675959 C0.262444529,3.55686991 0.0664211463,3.06609622 0.0664211463,2.47865499 C0.0664211463,1.89121376 0.262444529,1.40044007 0.65530131,1.00385527 C1.04734808,0.606444255 1.52525632,0.406499419 2.08497598,0.406499419 C2.36362079,0.406499419 2.62930538,0.46516092 2.88283975,0.57422174 C3.13556412,0.684108778 3.34130767,0.832828077 3.49035024,1.01624855 L3.1517644,1.36491268 C2.89174991,1.05177593 2.5377738,0.897273107 2.08497598,0.897273107 C1.67672894,0.897273107 1.32275283,1.04268753 1.02223764,1.33599504 C0.724962512,1.63012877 0.57591994,2.01101542 0.57591994,2.47865499 C0.57591994,2.94629457 0.724962512,3.33048609 1.02223764,3.62461982 C1.32275283,3.91462245 1.67672894,4.06334175 2.08497598,4.06334175 C2.51833346,4.06334175 2.88283975,3.91462245 3.17039472,3.62131494 C3.35993799,3.42715364 3.46766985,3.1594589 3.49602034,2.81740451 L2.08497598,2.81740451 L2.08497598,2.33985031 L3.96744847,2.33985031 C3.99012886,2.4431276 3.99660898,2.54310002 3.99660898,2.63976757 Z" id="path20"></path>
                                </g>
                                <g id="g22" transform="translate(32.416025, 20.434552) scale(-1, 1) rotate(-180.000000) translate(-32.416025, -20.434552) translate(30.795997, 17.955897)" fill="#FFFFFF" stroke="#FFFFFF" stroke-width="0.625">
                                    <polygon id="path24" points="2.93306062 0.984026032 1.1648001 0.984026032 1.1648001 2.23987789 2.75890762 2.23987789 2.75890762 2.71743209 1.1648001 2.71743209 1.1648001 3.97328395 2.93306062 3.97328395 2.93306062 4.45992655 0.664211463 4.45992655 0.664211463 0.497383435 2.93306062 0.497383435"></polygon>
                                </g>
                                <g id="g26" transform="translate(35.656080, 20.434552) scale(-1, 1) rotate(-180.000000) translate(-35.656080, -20.434552) translate(34.036053, 17.955897)" fill="#FFFFFF" stroke="#FFFFFF" stroke-width="0.625">
                                    <polygon id="path28" points="1.80066108 4.45992655 1.30007244 4.45992655 1.30007244 0.984026032 0.215463719 0.984026032 0.215463719 0.497383435 2.88607981 0.497383435 2.88607981 0.984026032 1.80066108 0.984026032 1.80066108 4.45992655"></polygon>
                                </g>
                                <g id="g30" transform="translate(38.896136, 20.434552) scale(-1, 1) rotate(-180.000000) translate(-38.896136, -20.434552) translate(38.086122, 17.955897)" fill="#FFFFFF" stroke="#FFFFFF" stroke-width="0.625">
                                    <polygon id="path32" points="0.768703267 4.45992655 0.768703267 0.497383435 1.26848189 0.497383435 1.26848189 4.45992655"></polygon>
                                </g>
                                <g id="g34" transform="translate(41.326178, 20.434552) scale(-1, 1) rotate(-180.000000) translate(-41.326178, -20.434552) translate(39.706150, 17.955897)" fill="#FFFFFF" stroke="#FFFFFF" stroke-width="0.625">
                                    <polygon id="path36" points="1.86384217 4.45992655 1.3673036 4.45992655 1.3673036 0.984026032 0.278644809 0.984026032 0.278644809 0.497383435 2.95250096 0.497383435 2.95250096 0.984026032 1.86384217 0.984026032"></polygon>
                                </g>
                                <g id="g38" transform="translate(46.186262, 20.434552) scale(-1, 1) rotate(-180.000000) translate(-46.186262, -20.434552) translate(43.756220, 17.955897)" fill="#FFFFFF" stroke="#FFFFFF" stroke-width="0.625">
                                    <path d="M3.95853832,3.95014984 C3.57540171,4.35086573 3.10073351,4.55081056 2.53453374,4.55081056 C1.96509391,4.55081056 1.49042572,4.35086573 1.10728911,3.95014984 C0.724962512,3.55026017 0.534609227,3.05948648 0.534609227,2.47865499 C0.534609227,1.89782351 0.724962512,1.40704982 1.10728911,1.00716014 C1.49042572,0.606444255 1.96509391,0.406499419 2.53453374,0.406499419 C3.09749346,0.406499419 3.57216165,0.606444255 3.95529826,1.01046502 C4.34086492,1.41365956 4.5312182,1.90112838 4.5312182,2.47865499 C4.5312182,3.05948648 4.34086492,3.55026017 3.95853832,3.95014984 Z M1.4774655,3.61801007 C1.76583048,3.91462245 2.11656653,4.06334175 2.53453374,4.06334175 C2.9492609,4.06334175 3.30323701,3.91462245 3.58836193,3.61801007 C3.87591689,3.32139769 4.02171941,2.94051104 4.02171941,2.47865499 C4.02171941,2.01679894 3.87591689,1.63591229 3.58836193,1.33929991 C3.30323701,1.04268753 2.9492609,0.893968234 2.53453374,0.893968234 C2.11656653,0.893968234 1.76583048,1.04268753 1.4774655,1.33929991 C1.18991054,1.63591229 1.04410802,2.01679894 1.04410802,2.47865499 C1.04410802,2.94051104 1.18991054,3.32139769 1.4774655,3.61801007 Z" id="path40"></path>
                                </g>
                                <g id="g42" transform="translate(50.641339, 20.434552) scale(-1, 1) rotate(-180.000000) translate(-50.641339, -20.434552) translate(48.616304, 17.955897)" fill="#FFFFFF" stroke="#FFFFFF" stroke-width="0.625">
                                    <polygon id="path44" points="0.373416445 4.45992655 0.373416445 0.497383435 0.98092693 0.497383435 2.86987953 3.57917781 2.89174991 3.57917781 2.86987953 2.81740451 2.86987953 0.497383435 3.36965816 0.497383435 3.36965816 4.45992655 2.84800915 4.45992655 0.869955014 1.226108 0.848084637 1.226108 0.869955014 1.99118618 0.869955014 4.45992655 0.373416445 4.45992655"></polygon>
                                </g>
                                <path d="M44.1677074,12.6664472 C42.6456911,12.6664472 41.4023197,11.484955 41.4023197,9.85482627 C41.4023197,8.23791699 42.6456911,7.0440315 44.1677074,7.0440315 C45.6929637,7.0440315 46.9363352,8.23791699 46.9363352,9.85482627 C46.9363352,11.484955 45.6929637,12.6664472 44.1677074,12.6664472 Z M44.1677074,8.15116407 C43.332583,8.15116407 42.6141006,8.85427587 42.6141006,9.85482627 C42.6141006,10.8685962 43.332583,11.5593147 44.1677074,11.5593147 C45.0028318,11.5593147 45.7245543,10.8685962 45.7245543,9.85482627 C45.7245543,8.85427587 45.0028318,8.15116407 44.1677074,8.15116407 Z M38.1339132,12.6664472 C36.6086569,12.6664472 35.3685255,11.484955 35.3685255,9.85482627 C35.3685255,8.23791699 36.6086569,7.0440315 38.1339132,7.0440315 C39.6583596,7.0440315 40.899301,8.23791699 40.899301,9.85482627 C40.899301,11.484955 39.6583596,12.6664472 38.1339132,12.6664472 Z M38.1339132,8.15116407 C37.2979788,8.15116407 36.5770664,8.85427587 36.5770664,9.85482627 C36.5770664,10.8685962 37.2979788,11.5593147 38.1339132,11.5593147 C38.9690377,11.5593147 39.6875201,10.8685962 39.6875201,9.85482627 C39.6875201,8.85427587 38.9690377,8.15116407 38.1339132,8.15116407 Z M30.9539493,11.8047015 L30.9539493,10.6099898 L33.7509276,10.6099898 C33.6691162,9.94240541 33.4504124,9.45163172 33.1150666,9.10957733 C32.7068196,8.69646817 32.0709586,8.23791699 30.9539493,8.23791699 C29.2326696,8.23791699 27.8848064,9.65488143 27.8848064,11.4105954 C27.8848064,13.1663093 29.2326696,14.5832738 30.9539493,14.5832738 C31.8846554,14.5832738 32.5618271,14.2123017 33.0616057,13.7314427 L33.88701,14.5733592 C33.1879679,15.2541631 32.2580718,15.7771593 30.9539493,15.7771593 C28.5935686,15.7771593 26.6098444,13.8181956 26.6098444,11.4105954 C26.6098444,9.00299517 28.5935686,7.0440315 30.9539493,7.0440315 C32.2297214,7.0440315 33.1879679,7.47036016 33.9412809,8.27013951 C34.7132242,9.05752558 34.9537984,10.1646581 34.9537984,11.0586264 C34.9537984,11.3362357 34.931118,11.5915372 34.8906173,11.8047015 L30.9539493,11.8047015 Z M60.313716,10.8785108 C60.0861021,11.5072629 59.38382,12.6664472 57.9533353,12.6664472 C56.5358108,12.6664472 55.3556205,11.5270922 55.3556205,9.85482627 C55.3556205,8.28005413 56.5236606,7.0440315 58.0894177,7.0440315 C59.3554695,7.0440315 60.0861021,7.83141757 60.3866173,8.28996875 L59.4470011,8.92863552 C59.1335257,8.46099594 58.7066483,8.15116407 58.0894177,8.15116407 C57.4762371,8.15116407 57.0363995,8.43786183 56.7545146,9.00299517 L60.4408882,10.5587643 L60.313716,10.8785108 Z M56.5552512,9.94240541 C56.5236606,11.0264039 57.3806554,11.5816226 57.994646,11.5816226 C58.4757943,11.5816226 58.8840414,11.3362357 59.0201237,10.9850929 L56.5552512,9.94240541 Z M53.5590095,7.2150587 L54.7707904,7.2150587 L54.7707904,15.477242 L53.5590095,15.477242 L53.5590095,7.2150587 Z M51.5744752,12.0401737 L51.5339745,12.0401737 C51.2618098,12.3690086 50.7425909,12.6664472 50.0848595,12.6664472 C48.7045957,12.6664472 47.4425939,11.4304246 47.4425939,9.84573786 C47.4425939,8.27013951 48.7045957,7.0440315 50.0848595,7.0440315 C50.7425909,7.0440315 51.2618098,7.34394876 51.5339745,7.68269827 L51.5744752,7.68269827 L51.5744752,7.27950373 C51.5744752,6.20459368 51.0115155,5.62706707 50.1034898,5.62706707 C49.3631371,5.62706707 48.9038591,6.17237117 48.7143159,6.63092234 L47.6604877,6.18228579 C47.9642429,5.43703685 48.7685868,4.5199345 50.1034898,4.5199345 C51.5242543,4.5199345 52.723075,5.37259182 52.723075,7.44722605 L52.723075,12.49542 L51.5744752,12.49542 L51.5744752,12.0401737 Z M50.1885413,8.15116407 C49.3534169,8.15116407 48.6543748,8.86419049 48.6543748,9.84573786 C48.6543748,10.8363736 49.3534169,11.5593147 50.1885413,11.5593147 C51.0115155,11.5593147 51.6603367,10.8363736 51.6603367,9.84573786 C51.6603367,8.86419049 51.0115155,8.15116407 50.1885413,8.15116407 Z M65.987054,15.477242 L63.0888239,15.477242 L63.0888239,7.2150587 L64.2973648,7.2150587 L64.2973648,10.3456 L65.987054,10.3456 C67.3292471,10.3456 68.6455198,11.3362357 68.6455198,12.9118341 C68.6455198,14.4866062 67.3260071,15.477242 65.987054,15.477242 Z M66.0186445,11.4948697 L64.2973648,11.4948697 L64.2973648,14.3279723 L66.0186445,14.3279723 C66.9210001,14.3279723 67.436169,13.5637204 67.436169,12.9118341 C67.436169,12.2723411 66.9210001,11.4948697 66.0186445,11.4948697 Z M73.4894034,12.6821454 C72.6162084,12.6821454 71.7081827,12.2888655 71.3347663,11.4172051 L72.4072248,10.958654 C72.6380787,11.4172051 73.0625261,11.5659244 73.5112738,11.5659244 C74.1382246,11.5659244 74.7740856,11.1817329 74.7838058,10.5034077 L74.7838058,10.4166547 C74.565102,10.5455448 74.0969139,10.7364012 73.520994,10.7364012 C72.365914,10.7364012 71.1889637,10.0878198 71.1889637,8.87740998 C71.1889637,7.77027742 72.1350601,7.057251 73.1986084,7.057251 C74.0118625,7.057251 74.4606102,7.4315279 74.7424951,7.86694496 L74.7838058,7.86694496 L74.7838058,7.22827819 L75.9510359,7.22827819 L75.9510359,10.3976517 C75.9510359,11.8625368 74.8785774,12.6821454 73.4894034,12.6821454 Z M73.3436009,8.15446894 C72.9483141,8.15446894 72.3975046,8.35441378 72.3975046,8.85427587 C72.3975046,9.49376885 73.0843964,9.7391557 73.6789467,9.7391557 C74.2111259,9.7391557 74.4606102,9.61935404 74.7838058,9.46154634 C74.6890341,8.69646817 74.043453,8.15446894 73.3436009,8.15446894 Z M80.2036093,12.5012036 L78.8144353,8.91954712 L78.7731246,8.91954712 L77.3369698,12.5012036 L76.0336573,12.5012036 L78.1915346,7.49597293 L76.9603133,4.71079094 L78.2231251,4.71079094 L81.5482325,12.5012036 L80.2036093,12.5012036 Z M69.3097313,7.2150587 L70.5215122,7.2150587 L70.5215122,15.477242 L69.3097313,15.477242 L69.3097313,7.2150587 Z" id="path46" fill="#FFFFFF"></path>
                                <g id="g48" transform="translate(5.685563, 4.736404)" fill="url(#linearGradient-1)">
                                    <path d="M1.09189884,17.3249722 C0.90154556,17.1217225 0.791383658,16.8052808 0.791383658,16.3954766 L0.791383658,1.77802185 C0.791383658,1.36821756 0.90154556,1.05177593 1.09189884,0.848526225 L1.13887966,0.803910436 L9.16935825,8.99173409 L9.16935825,9.18506918 L1.13887966,17.3728928 L1.09189884,17.3249722 Z" id="path64"></path>
                                </g>
                                <g id="g66" transform="translate(14.595717, 10.519932)" fill="url(#linearGradient-2)">
                                    <path d="M2.93306062,0.477554195 L0.259204474,3.20820578 L0.259204474,3.40154087 L2.93630068,6.13219245 L2.99624171,6.09666506 L6.16663643,4.25667684 C7.07142204,3.73450685 7.07142204,2.87523979 6.16663643,2.34976493 L2.99624171,0.513081583 L2.93306062,0.477554195 Z" id="path78"></path>
                                </g>
                                <g id="g80" transform="translate(6.495577, 4.736404)" fill="url(#linearGradient-3)">
                                    <path d="M11.0963815,6.2966099 L8.35934427,9.08840164 L0.281884865,0.848526225 C0.582400051,0.526301077 1.07245851,0.487468815 1.62974813,0.809693964 L11.0963815,6.2966099" id="path88"></path>
                                </g>
                                <g id="g90" transform="translate(6.495577, 13.824805)" fill="url(#linearGradient-4)">
                                    <path d="M11.0963815,2.79179174 L1.62974813,8.27870767 C1.07245851,8.59762795 0.582400051,8.55879569 0.281884865,8.23657054 L8.35934427,0 L11.0963815,2.79179174 Z" id="path104"></path>
                                </g>
                            </g>
                        </g>
                    </g>
                </g>
            </g>
        </g>
    </g>
</svg>