<?xml version="1.0" encoding="UTF-8"?>
<svg width="200px" height="60px" viewBox="0 0 94 28" version="1.1" xmlns="http://www.w3.org/2000/svg" xmlns:xlink="http://www.w3.org/1999/xlink">
    <!-- Generator: Sketch 51.2 (57519) - http://www.bohemiancoding.com/sketch -->
    <title>App_Store_Badge</title>
    <desc>Created with Sketch.</desc>
    <defs></defs>
    <g id="Page-1" stroke="none" stroke-width="1" fill="none" fill-rule="evenodd">
        <g id="People-Page" transform="translate(-1033.000000, -4612.000000)" fill-rule="nonzero">
            <g id="Feature-Grid-Reversed" transform="translate(-2.000000, 3927.000000)">
                <g id="Text-block" transform="translate(1035.000000, 537.000000)">
                    <g id="App_Store_Badge" transform="translate(0.000000, 148.000000)">
                        <path d="M89.7223771,27.5651135 L3.25888554,27.5651135 C1.46232927,27.5651135 0,26.0986495 0,24.3034714 L0,3.25681816 C0,1.46095102 1.46232927,0 3.25888554,0 L89.7223771,0 C91.5182442,0 93.0322581,1.46095102 93.0322581,3.25681816 L93.0322581,24.3034714 C93.0322581,26.0986495 91.5182442,27.5651135 89.7223771,27.5651135 Z" id="Shape" fill="#A6A6A6"></path>
                        <path d="M92.3651823,24.3041606 C92.3651823,25.7623551 91.1840172,26.9435202 89.7230662,26.9435202 L3.25888554,26.9435202 C1.79862366,26.9435202 0.613323775,25.7623551 0.613323775,24.3041606 L0.613323775,3.25612903 C0.613323775,1.79862366 1.79862366,0.613323775 3.25888554,0.613323775 L89.7223771,0.613323775 C91.1840172,0.613323775 92.3644932,1.79862366 92.3644932,3.25612903 L92.3651823,24.3041606 Z" id="Shape" fill="#000000"></path>
                        <g id="Group" transform="translate(8.269534, 4.134767)" fill="#FFFFFF">
                            <path d="M12.4925094,9.49893811 C12.4725247,7.27787909 14.3111178,6.19732664 14.3951914,6.14702031 C13.3539192,4.62887168 11.7399818,4.42144421 11.1728296,4.40490514 C9.81731517,4.26225568 8.50245926,5.2160086 7.81195317,5.2160086 C7.10766452,5.2160086 6.04434026,4.41868769 4.89832067,4.44211804 C3.4235871,4.46485926 2.04395317,5.31868865 1.2872908,6.64457061 C-0.274272879,9.34801912 0.890353166,13.3208411 2.3864497,15.5060655 C3.13484253,16.576281 4.00934576,17.7712287 5.1539871,17.7291919 C6.27381983,17.6830203 6.69212043,17.0152554 8.04350012,17.0152554 C9.38247551,17.0152554 9.77527838,17.7291919 10.9426609,17.7023159 C12.1444999,17.6830203 12.9011622,16.6272765 13.6233682,15.5474131 C14.4882237,14.3207656 14.8355441,13.1127245 14.8493266,13.050703 C14.8210724,13.0410552 12.5152507,12.1610389 12.4925094,9.49893811 Z" id="Shape"></path>
                            <path d="M10.2873004,2.96738447 C10.8895981,2.21416774 11.3016965,1.18943465 11.1873013,0.149540741 C10.3155546,0.1881319 9.22535436,0.752527599 8.5975589,1.48920526 C8.04212186,2.13836368 7.54594982,3.20237706 7.6741276,4.20299068 C8.65337826,4.27603823 9.65881577,3.70888602 10.2873004,2.96738447 Z" id="Shape"></path>
                        </g>
                        <g id="Group" transform="translate(28.943369, 12.404301)" fill="#FFFFFF">
                            <path d="M8.02489367,9.30598232 L6.45988435,9.30598232 L5.60260932,6.6121816 L2.62282055,6.6121816 L1.80620406,9.30598232 L0.282542413,9.30598232 L3.23476607,0.135069056 L5.05819833,0.135069056 L8.02489367,9.30598232 Z M5.34418638,5.48201195 L4.56891756,3.08729271 C4.48691135,2.84265233 4.33323584,2.26654146 4.10651278,1.35964922 L4.07894767,1.35964922 C3.98867192,1.74969558 3.84326595,2.32580645 3.64341888,3.08729271 L2.88193262,5.48201195 L5.34418638,5.48201195 Z" id="Shape"></path>
                            <path d="M15.6170151,5.91822987 C15.6170151,7.0428865 15.3131097,7.93186141 14.7052989,8.58446547 C14.1608879,9.16540024 13.4848535,9.45552306 12.6778848,9.45552306 C11.8068272,9.45552306 11.1810992,9.14265902 10.8000115,8.51693094 L10.7724464,8.51693094 L10.7724464,12.0004722 L9.30322581,12.0004722 L9.30322581,4.87006643 C9.30322581,4.16302127 9.28461935,3.43736965 9.24878471,2.69311159 L10.5408994,2.69311159 L10.6229056,3.74127503 L10.6504707,3.74127503 C11.1404406,2.95153453 11.8840096,2.55735341 12.8818667,2.55735341 C13.6619594,2.55735341 14.3131852,2.86539355 14.8341658,3.48216296 C15.3565247,4.09962151 15.6170151,4.9114141 15.6170151,5.91822987 Z M14.1202294,5.97198184 C14.1202294,5.32833644 13.9755125,4.797708 13.6847006,4.38009654 C13.3670127,3.94456774 12.9404425,3.72680335 12.4056793,3.72680335 C12.0431981,3.72680335 11.713795,3.84808984 11.4195374,4.0872172 C11.1245907,4.32841195 10.9316349,4.64334337 10.8413591,5.03338973 C10.7958767,5.21531947 10.7731355,5.36417109 10.7731355,5.48132282 L10.7731355,6.58392736 C10.7731355,7.06493859 10.9206088,7.47083489 11.2155556,7.80230538 C11.5105023,8.13377587 11.8936573,8.29916655 12.3650208,8.29916655 C12.9183904,8.29916655 13.3490953,8.08553692 13.6571355,7.65965591 C13.9658648,7.23308578 14.1202294,6.67075747 14.1202294,5.97198184 Z" id="Shape"></path>
                            <path d="M23.222919,5.91822987 C23.222919,7.0428865 22.9190136,7.93186141 22.3105137,8.58446547 C21.7667919,9.16540024 21.0907575,9.45552306 20.2837888,9.45552306 C19.4127312,9.45552306 18.7870031,9.14265902 18.4066045,8.51693094 L18.3790394,8.51693094 L18.3790394,12.0004722 L16.9098189,12.0004722 L16.9098189,4.87006643 C16.9098189,4.16302127 16.8912124,3.43736965 16.8553778,2.69311159 L18.1474925,2.69311159 L18.2294987,3.74127503 L18.2570638,3.74127503 C18.7463446,2.95153453 19.4899135,2.55735341 20.4884597,2.55735341 C21.2678633,2.55735341 21.9190891,2.86539355 22.441448,3.48216296 C22.9617395,4.09962151 23.222919,4.9114141 23.222919,5.91822987 Z M21.7261333,5.97198184 C21.7261333,5.32833644 21.5807274,4.797708 21.2899154,4.38009654 C20.9722275,3.94456774 20.5470356,3.72680335 20.0115833,3.72680335 C19.6484129,3.72680335 19.3196989,3.84808984 19.0247522,4.0872172 C18.7298055,4.32841195 18.5375388,4.64334337 18.4472631,5.03338973 C18.4024698,5.21531947 18.3790394,5.36417109 18.3790394,5.48132282 L18.3790394,6.58392736 C18.3790394,7.06493859 18.5265128,7.47083489 18.8200812,7.80230538 C19.115028,8.13308674 19.498183,8.29916655 19.9709247,8.29916655 C20.5242944,8.29916655 20.9549993,8.08553692 21.2630394,7.65965591 C21.5717687,7.23308578 21.7261333,6.67075747 21.7261333,5.97198184 Z" id="Shape"></path>
                            <path d="M31.7267565,6.73415723 C31.7267565,7.51424994 31.4559293,8.14893668 30.9122074,8.63890657 C30.3147336,9.1743589 29.4829563,9.4417405 28.414119,9.4417405 C27.4272879,9.4417405 26.6361692,9.25154122 26.0373171,8.87045352 L26.3777462,7.64587336 C27.0227699,8.03591971 27.7305042,8.23163202 28.5016382,8.23163202 C29.0550079,8.23163202 29.4857128,8.10621075 29.7951312,7.85674648 C30.1031713,7.6072822 30.2568468,7.27236607 30.2568468,6.8547546 C30.2568468,6.48262557 30.1300473,6.1690724 29.8757591,5.91478423 C29.6228492,5.66049606 29.2004139,5.42412521 28.6105204,5.20567168 C27.0048526,4.60681959 26.2027078,3.72955986 26.2027078,2.57595986 C26.2027078,1.822054 26.4838719,1.20390633 27.0468894,0.722895102 C27.6078394,0.241194743 28.3562323,0.000689127838 29.2920679,0.000689127838 C30.1266017,0.000689127838 30.8198643,0.146095102 31.3732339,0.436217921 L31.0059288,1.6339221 C30.4890829,1.35275795 29.9047025,1.21217587 29.2507202,1.21217587 C28.7338743,1.21217587 28.3300454,1.33966452 28.0406117,1.59326356 C27.7959713,1.81998662 27.6733066,2.09632688 27.6733066,2.4236626 C27.6733066,2.78614385 27.8131995,3.08591446 28.0943637,3.32159618 C28.3390041,3.53936057 28.7834915,3.77504229 29.4285152,4.02933047 C30.2175665,4.3470184 30.7971231,4.7184583 31.1699412,5.14433931 C31.5413811,5.56884205 31.7267565,6.10015962 31.7267565,6.73415723 Z" id="Shape"></path>
                            <path d="M36.5844186,3.79571613 L34.9649682,3.79571613 L34.9649682,7.00636272 C34.9649682,7.82297921 35.2502671,8.23094289 35.8222432,8.23094289 C36.084801,8.23094289 36.3025654,8.20820167 36.4748473,8.16271924 L36.5155059,9.2784172 C36.2260722,9.38661027 35.8449845,9.44105137 35.3729319,9.44105137 C34.7926863,9.44105137 34.3392401,9.26394552 34.0119044,8.91042294 C33.685947,8.55621123 33.5219345,7.96218303 33.5219345,7.12764922 L33.5219345,3.79433787 L32.5571556,3.79433787 L32.5571556,2.69173333 L33.5219345,2.69173333 L33.5219345,1.48093572 L34.9649682,1.04540693 L34.9649682,2.69173333 L36.5844186,2.69173333 L36.5844186,3.79571613 Z" id="Shape"></path>
                            <path d="M43.8912411,5.94510585 C43.8912411,6.96156941 43.6004292,7.79610323 43.0201835,8.44870729 C42.4116836,9.12060693 41.6040258,9.45552306 40.59721,9.45552306 C39.626918,9.45552306 38.8544057,9.13370036 38.2782949,8.49005496 C37.702184,7.84640956 37.4141286,7.03392784 37.4141286,6.05467718 C37.4141286,5.02994409 37.7104535,4.19058638 38.3051708,3.53798232 C38.8985099,2.88468913 39.6992765,2.55804253 40.7060922,2.55804253 C41.6763842,2.55804253 42.4571661,2.87986523 43.0463704,3.52419976 C43.6100769,4.14923871 43.8912411,4.95620741 43.8912411,5.94510585 Z M42.3668903,5.99265568 C42.3668903,5.38277754 42.2366452,4.85972951 41.9727092,4.42351159 C41.6646691,3.89563967 41.2243164,3.63239283 40.6537185,3.63239283 C40.063136,3.63239283 39.6145137,3.89632879 39.3064736,4.42351159 C39.0425376,4.86041864 38.9122925,5.3917362 38.9122925,6.02022079 C38.9122925,6.63009892 39.0425376,7.15314695 39.3064736,7.58867575 C39.6241615,8.11654767 40.0679599,8.3797945 40.6406251,8.3797945 C41.2015751,8.3797945 41.6419278,8.11103465 41.9596158,7.57489319 C42.230443,7.13040573 42.3668903,6.60184468 42.3668903,5.99265568 Z" id="Shape"></path>
                            <path d="M48.666897,3.98522628 C48.521491,3.9583503 48.3664373,3.94456774 48.2038031,3.94456774 C47.6869572,3.94456774 47.2872631,4.13959092 47.0060989,4.5303264 C46.7614585,4.87489032 46.6387938,5.31041912 46.6387938,5.83622366 L46.6387938,9.30598232 L45.1702624,9.30598232 L45.1840449,4.77565591 C45.1840449,4.01348053 45.1654385,3.31952879 45.1289147,2.69380072 L46.4086251,2.69380072 L46.4623771,3.95903943 L46.5030356,3.95903943 C46.6580894,3.52419976 46.9027297,3.17412282 47.2376459,2.91156511 C47.5649816,2.67519427 47.9185042,2.55735341 48.2995919,2.55735341 C48.4353501,2.55735341 48.5580148,2.56700119 48.666897,2.58422939 L48.666897,3.98522628 Z" id="Shape"></path>
                            <path d="M55.2377309,5.68668292 C55.2377309,5.94992975 55.2205027,6.17182891 55.183979,6.35306953 L50.7763173,6.35306953 C50.7935455,7.00636272 51.006486,7.50598041 51.415828,7.85054432 C51.7872679,8.15858447 52.26759,8.3129491 52.8574834,8.3129491 C53.5100875,8.3129491 54.1054939,8.2088908 54.6409462,8.00008507 L54.8711149,9.01999427 C54.2453869,9.29288889 53.5066418,9.42864707 52.6541907,9.42864707 C51.6287685,9.42864707 50.8238671,9.12680908 50.2381085,8.52382222 C49.6537281,7.92083536 49.3608487,7.11111016 49.3608487,6.09533572 C49.3608487,5.09816774 49.6330542,4.2677687 50.1781544,3.60551685 C50.7487522,2.89847168 51.5198863,2.5449491 52.4901783,2.5449491 C53.4432421,2.5449491 54.1647589,2.89847168 54.6547288,3.60551685 C55.0427078,4.16715603 55.2377309,4.86179689 55.2377309,5.68668292 Z M53.8367341,5.30559522 C53.8463818,4.87006643 53.7505931,4.49380263 53.5514351,4.1761147 C53.297147,3.76746189 52.9064115,3.56348005 52.3806069,3.56348005 C51.9002848,3.56348005 51.5095493,3.76263799 51.211157,4.16233214 C50.9665166,4.48002007 50.8211106,4.86110777 50.7763173,5.30490609 L53.8367341,5.30490609 L53.8367341,5.30559522 Z" id="Shape"></path>
                        </g>
                        <g id="Group" transform="translate(29.632497, 4.134767)" fill="#FFFFFF">
                            <path d="M4.16922342,2.7627135 C4.16922342,3.57381697 3.92596129,4.18438423 3.44012616,4.59441529 C2.99012569,4.97274648 2.35061505,5.16225663 1.52228339,5.16225663 C1.1115632,5.16225663 0.760108005,5.14433931 0.465850418,5.10850466 L0.465850418,0.676723536 C0.849694624,0.614702031 1.26317133,0.583002151 1.70972616,0.583002151 C2.49877754,0.583002151 3.09349486,0.754594982 3.49456726,1.09778065 C3.94387861,1.48575962 4.16922342,2.04050753 4.16922342,2.7627135 Z M3.40773716,2.78269821 C3.40773716,2.25689367 3.26853333,1.85375388 2.99012569,1.57258973 C2.71171804,1.2921147 2.30513262,1.15153262 1.76968029,1.15153262 C1.5422681,1.15153262 1.34862318,1.16669343 1.18805639,1.19839331 L1.18805639,4.56753931 C1.27695388,4.58132186 1.43958805,4.58752401 1.6759589,4.58752401 C2.22863943,4.58752401 2.65520956,4.43384851 2.9556693,4.12649749 C3.25612903,3.81914648 3.40773716,3.37121338 3.40773716,2.78269821 Z" id="Shape"></path>
                            <path d="M8.20682342,3.47113692 C8.20682342,3.9707546 8.06417395,4.38009654 7.77887503,4.70123011 C7.47979355,5.03132234 7.08354504,5.19602389 6.58875125,5.19602389 C6.11187479,5.19602389 5.73216535,5.03821362 5.44893381,4.72121481 C5.1663914,4.40490514 5.02512019,4.00590012 5.02512019,3.52488889 C5.02512019,3.02182557 5.17052616,2.60903799 5.46271637,2.28859355 C5.75490657,1.9681491 6.14770944,1.80758232 6.64250323,1.80758232 C7.11937969,1.80758232 7.50253477,1.96539259 7.79265759,2.28170227 C8.06830872,2.58905329 8.20682342,2.98599092 8.20682342,3.47113692 Z M7.45774146,3.49456726 C7.45774146,3.19479665 7.39296344,2.93775197 7.26409654,2.72343321 C7.11248841,2.46432115 6.8967914,2.33476511 6.61631637,2.33476511 C6.32619355,2.33476511 6.10567264,2.46432115 5.95406452,2.72343321 C5.82450848,2.93775197 5.76041959,3.19893142 5.76041959,3.50766069 C5.76041959,3.8074313 5.82519761,4.06447599 5.95406452,4.27879474 C6.11049654,4.53790681 6.32826093,4.66746284 6.60942509,4.66746284 C6.88507622,4.66746284 7.10146237,4.53583943 7.25720526,4.27190346 C7.39089606,4.05344994 7.45774146,3.79433787 7.45774146,3.49456726 Z" id="Shape"></path>
                            <path d="M13.6206117,1.87373859 L12.6041481,5.12228722 L11.9425854,5.12228722 L11.5215283,3.71164253 C11.4147135,3.35949821 11.3278834,3.00942127 11.2603489,2.66210084 L11.2472554,2.66210084 C11.1845448,3.01906906 11.0977147,3.36845687 10.986076,3.71164253 L10.538832,5.12228722 L9.86968889,5.12228722 L8.91386858,1.87373859 L9.65605926,1.87373859 L10.0233644,3.41807407 C10.1122619,3.78331183 10.1853094,4.13132139 10.2438853,4.46072449 L10.2569787,4.46072449 C10.3107307,4.18920812 10.3996282,3.84326595 10.5250495,3.42496535 L10.986076,1.87442772 L11.5745912,1.87442772 L12.0163221,3.39188722 C12.1231369,3.76194886 12.209967,4.11822796 12.2768124,4.46141362 L12.2967971,4.46141362 C12.3457252,4.12718662 12.4194619,3.77090753 12.517318,3.39188722 L12.9114992,1.87442772 L13.6206117,1.87442772 L13.6206117,1.87373859 Z" id="Shape"></path>
                            <path d="M17.3646432,5.12228722 L16.6424373,5.12228722 L16.6424373,3.26164205 C16.6424373,2.68828769 16.4246729,2.40161051 15.9877658,2.40161051 C15.7734471,2.40161051 15.600476,2.48017109 15.4660961,2.63798136 C15.3330944,2.79579164 15.2655599,2.98185615 15.2655599,3.19479665 L15.2655599,5.12159809 L14.5433539,5.12159809 L14.5433539,2.80199379 C14.5433539,2.51669486 14.5343952,2.20727646 14.517167,1.87236033 L15.1518538,1.87236033 L15.185621,2.38024755 L15.2056057,2.38024755 C15.2896793,2.22243728 15.4151006,2.09219211 15.5798022,1.98813381 C15.7755145,1.86684731 15.9946571,1.80551493 16.2344736,1.80551493 C16.5376898,1.80551493 16.7899106,1.90337109 16.9904468,2.09977252 C17.2399111,2.34027814 17.3646432,2.69931374 17.3646432,3.1761902 L17.3646432,5.12228722 Z" id="Shape"></path>
                            <polygon id="Shape" points="19.3562227 5.12228722 18.6347059 5.12228722 18.6347059 0.383155078 19.3562227 0.383155078"></polygon>
                            <path d="M23.6081415,3.47113692 C23.6081415,3.9707546 23.465492,4.38009654 23.1801931,4.70123011 C22.8811116,5.03132234 22.484174,5.19602389 21.9900693,5.19602389 C21.5125037,5.19602389 21.1327943,5.03821362 20.8502519,4.72121481 C20.5677094,4.40490514 20.4264382,4.00590012 20.4264382,3.52488889 C20.4264382,3.02182557 20.5718442,2.60903799 20.8640344,2.28859355 C21.1562246,1.9681491 21.5490275,1.80758232 22.0431321,1.80758232 C22.5206977,1.80758232 22.9031637,1.96539259 23.1939756,2.28170227 C23.4696268,2.58905329 23.6081415,2.98599092 23.6081415,3.47113692 Z M22.8583704,3.49456726 C22.8583704,3.19479665 22.7935924,2.93775197 22.6647254,2.72343321 C22.5138065,2.46432115 22.2974203,2.33476511 22.0176344,2.33476511 C21.7268225,2.33476511 21.5063016,2.46432115 21.3553826,2.72343321 C21.2258265,2.93775197 21.1617376,3.19893142 21.1617376,3.50766069 C21.1617376,3.8074313 21.2265157,4.06447599 21.3553826,4.27879474 C21.5118146,4.53790681 21.729579,4.66746284 22.0107431,4.66746284 C22.2863943,4.66746284 22.5020913,4.53583943 22.6578342,4.27190346 C22.7922141,4.05344994 22.8583704,3.79433787 22.8583704,3.49456726 Z" id="Shape"></path>
                            <path d="M27.1033978,5.12228722 L26.4549286,5.12228722 L26.4011766,4.7480908 L26.3811919,4.7480908 C26.1592927,5.04648315 25.842983,5.19602389 25.4322628,5.19602389 C25.125601,5.19602389 24.8775149,5.09747861 24.6907613,4.90176631 C24.5212358,4.72397133 24.4364731,4.50276129 24.4364731,4.24020358 C24.4364731,3.84326595 24.6018638,3.54073883 24.9347125,3.33124397 C25.2668722,3.1217491 25.7341008,3.01906906 26.3357094,3.02389295 L26.3357094,2.9632497 C26.3357094,2.53530131 26.1110538,2.32167168 25.6610533,2.32167168 C25.3406088,2.32167168 25.0580664,2.40229964 24.8141152,2.5621773 L24.6673309,2.08805735 C24.9691689,1.9013037 25.3419871,1.80758232 25.7816507,1.80758232 C26.6306562,1.80758232 27.0565372,2.25551541 27.0565372,3.1513816 L27.0565372,4.34770753 C27.0565372,4.67228674 27.0723871,4.93070968 27.1033978,5.12228722 Z M26.3536268,4.00590012 L26.3536268,3.50490418 C25.556995,3.49112162 25.1586791,3.70957515 25.1586791,4.15957563 C25.1586791,4.32910108 25.2041615,4.4559006 25.2971938,4.54066332 C25.390226,4.62542605 25.508756,4.66746284 25.6500272,4.66746284 C25.8085266,4.66746284 25.9566891,4.61715651 26.0917582,4.51723297 C26.2275164,4.41662031 26.3109008,4.28913166 26.3419116,4.13269964 C26.349492,4.09755412 26.3536268,4.0548282 26.3536268,4.00590012 Z" id="Shape"></path>
                            <path d="M31.2071541,5.12228722 L30.5662652,5.12228722 L30.532498,4.60061744 L30.5125133,4.60061744 C30.3078423,4.99755508 29.9591436,5.19602389 29.4691737,5.19602389 C29.0777491,5.19602389 28.7517916,5.04234839 28.4933687,4.73499737 C28.2349458,4.42764636 28.1060789,4.02864134 28.1060789,3.53867145 C28.1060789,3.01286691 28.2459718,2.5869859 28.527136,2.26171756 C28.7993415,1.95850131 29.1328793,1.80689319 29.529817,1.80689319 C29.9660349,1.80689319 30.2713185,1.95367742 30.4449787,2.24793501 L30.4587613,2.24793501 L30.4587613,0.383155078 L31.1816564,0.383155078 L31.1816564,4.24709486 C31.1816564,4.56340454 31.1899259,4.85490562 31.2071541,5.12228722 Z M30.4587613,3.75230108 L30.4587613,3.21064659 C30.4587613,3.11692521 30.45187,3.04112115 30.4387766,2.98323441 C30.398118,2.80957419 30.3105988,2.66347909 30.1775971,2.54563823 C30.0432172,2.42779737 29.8812722,2.36853238 29.6945185,2.36853238 C29.4250695,2.36853238 29.2141964,2.47534719 29.0591427,2.68966595 C28.9054671,2.90398471 28.8275957,3.17756846 28.8275957,3.51179546 C28.8275957,3.83292903 28.9013324,4.09341935 29.0494949,4.29395556 C29.2059269,4.50758519 29.4168,4.6144 29.680736,4.6144 C29.9177959,4.6144 30.1073061,4.52550251 30.2513338,4.3470184 C30.3905376,4.18231685 30.4587613,3.98384803 30.4587613,3.75230108 Z" id="Shape"></path>
                            <path d="M37.3838069,3.47113692 C37.3838069,3.9707546 37.2411575,4.38009654 36.9558585,4.70123011 C36.6567771,5.03132234 36.2612177,5.19602389 35.7657348,5.19602389 C35.2895474,5.19602389 34.909838,5.03821362 34.6259173,4.72121481 C34.3433749,4.40490514 34.2021037,4.00590012 34.2021037,3.52488889 C34.2021037,3.02182557 34.3475097,2.60903799 34.6396999,2.28859355 C34.9318901,1.9681491 35.324693,1.80758232 35.8201759,1.80758232 C36.2963632,1.80758232 36.6802074,1.96539259 36.9696411,2.28170227 C37.2452922,2.58905329 37.3838069,2.98599092 37.3838069,3.47113692 Z M36.6354141,3.49456726 C36.6354141,3.19479665 36.5706361,2.93775197 36.4417692,2.72343321 C36.2894719,2.46432115 36.074464,2.33476511 35.7932999,2.33476511 C35.5038662,2.33476511 35.2833453,2.46432115 35.131048,2.72343321 C35.001492,2.93775197 34.9374031,3.19893142 34.9374031,3.50766069 C34.9374031,3.8074313 35.0021811,4.06447599 35.131048,4.27879474 C35.28748,4.53790681 35.5052444,4.66746284 35.7864086,4.66746284 C36.0620597,4.66746284 36.279135,4.53583943 36.4348779,4.27190346 C36.5678796,4.05344994 36.6354141,3.79433787 36.6354141,3.49456726 Z" id="Shape"></path>
                            <path d="M41.2670423,5.12228722 L40.5455254,5.12228722 L40.5455254,3.26164205 C40.5455254,2.68828769 40.3277611,2.40161051 39.8901649,2.40161051 C39.6758461,2.40161051 39.502875,2.48017109 39.3691842,2.63798136 C39.2354934,2.79579164 39.168648,2.98185615 39.168648,3.19479665 L39.168648,5.12159809 L38.4457529,5.12159809 L38.4457529,2.80199379 C38.4457529,2.51669486 38.4374834,2.20727646 38.4202552,1.87236033 L39.0542528,1.87236033 L39.0880201,2.38024755 L39.1080048,2.38024755 C39.1927675,2.22243728 39.3181888,2.09219211 39.4822012,1.98813381 C39.6786026,1.86684731 39.8970562,1.80551493 40.1375618,1.80551493 C40.4400889,1.80551493 40.6923097,1.90337109 40.8928459,2.09977252 C41.1429993,2.34027814 41.2670423,2.69931374 41.2670423,3.1761902 L41.2670423,5.12228722 Z" id="Shape"></path>
                            <path d="M46.1274609,2.41470394 L45.3322074,2.41470394 L45.3322074,3.99280669 C45.3322074,4.39387909 45.4734786,4.59441529 45.7532645,4.59441529 C45.8828205,4.59441529 45.9903245,4.58338925 46.0750872,4.56064803 L46.0936937,5.10850466 C45.9510442,5.16225663 45.7636014,5.18913262 45.5327436,5.18913262 C45.2474447,5.18913262 45.0255455,5.10230251 44.8649787,4.92864229 C44.7037228,4.75498208 44.623784,4.46279188 44.623784,4.05276081 L44.623784,2.41470394 L44.1489749,2.41470394 L44.1489749,1.87373859 L44.623784,1.87373859 L44.623784,1.27833214 L45.3315183,1.06470251 L45.3315183,1.87304946 L46.1267718,1.87304946 L46.1267718,2.41470394 L46.1274609,2.41470394 Z" id="Shape"></path>
                            <path d="M49.9507422,5.12228722 L49.2278471,5.12228722 L49.2278471,3.27542461 C49.2278471,2.69311159 49.0100827,2.40161051 48.5738648,2.40161051 C48.2389486,2.40161051 48.0101582,2.57044683 47.8847369,2.90811947 C47.863374,2.97909964 47.8509697,3.06592975 47.8509697,3.16792067 L47.8509697,5.12159809 L47.1294528,5.12159809 L47.1294528,0.383155078 L47.8509697,0.383155078 L47.8509697,2.34096726 L47.8647522,2.34096726 C48.0921644,1.98468817 48.4181219,1.80689319 48.8405572,1.80689319 C49.1396387,1.80689319 49.3870356,1.90474934 49.583437,2.10115078 C49.8280774,2.34579116 49.9507422,2.70965066 49.9507422,3.19066189 L49.9507422,5.12228722 Z" id="Shape"></path>
                            <path d="M53.8946208,3.3443374 C53.8946208,3.47389343 53.884973,3.58277563 53.8677448,3.67167312 L51.701816,3.67167312 C51.7114638,3.99280669 51.814833,4.23744707 52.0153692,4.40697252 C52.1986772,4.55858065 52.435048,4.63438471 52.7244817,4.63438471 C53.0449262,4.63438471 53.3371164,4.58338925 53.6003632,4.4807092 L53.7133802,4.98239427 C53.40534,5.11608507 53.0428588,5.18293047 52.6231799,5.18293047 C52.1201166,5.18293047 51.7238681,5.03476798 51.4371909,4.73844301 C51.1491355,4.44211804 51.006486,4.04449128 51.006486,3.54556272 C51.006486,3.05559283 51.1394877,2.64762915 51.4075584,2.32236081 C51.6873443,1.97504038 52.0656755,1.80138017 52.5432411,1.80138017 C53.0104698,1.80138017 53.3653706,1.97504038 53.6051871,2.32236081 C53.798832,2.59801195 53.8946208,2.93913023 53.8946208,3.3443374 Z M53.205493,3.15758375 C53.211006,2.94326499 53.1634562,2.75857873 53.0656,2.60283584 C52.9401787,2.40229964 52.7492903,2.30168698 52.4908674,2.30168698 C52.2551857,2.30168698 52.062919,2.39954313 51.9161348,2.59594456 C51.7962265,2.75237658 51.7252464,2.93913023 51.701816,3.15758375 L53.205493,3.15758375 Z" id="Shape"></path>
                        </g>
                    </g>
                </g>
            </g>
        </g>
    </g>
</svg>