<svg xmlns="http://www.w3.org/2000/svg" width="300" height="69" viewBox="0 0 300 69">
<style type="text/css">
	.st0{fill:none;}
	.st1{fill:#D59B29;}
	.st2{fill:#B5ABA3;}
	.st3{fill:#39251E;}
	.st4{fill:#724F43;}
	.st5{fill:#292854;}
</style>
<polygon class="st0" points="129.1,12.64 129.67,-13.16 61.53,-38.68 84.52,-15.69 88.73,5.63 94.23,21.31 129.99,21.31 "/>
<path class="st1" d="M129.99,21.31H94.23l0.1,0.3l-4.49,37.01l-1.68,4.77c0,0-8.11,3.46-8.4,2.71c-0.05-0.13-0.5-0.27-1.19-0.41
	v20.85h64.58V67.68l-8.44-0.08L129.99,21.31z"/>
<polyline class="st2" points="112.86,1.55 113.31,93.52 137.21,85.84 137.14,85.52 134.45,53.25 133.39,52.19 131.36,28.09 
	130.83,27.45 130.83,25.74 131.89,25.42 130.61,23.4 130.29,18.81 129.12,15.3 126.35,15.72 123.58,13.59 122.62,10.39 
	119.63,10.07 118.14,8.47 116.01,2.71 114.55,2.89 113.7,2.57 "/>
<rect x="92.83" y="18.88" class="st3" width="16.42" height="32.41"/>
<path class="st1" d="M106.18,26.12l0.03,2.43c0,0,0.36,0.29,0.53,0.35c0.17,0.05,0.64-0.24,0.64-0.24v-1.97"/>
<path class="st1" d="M101.42,31.63c0-0.01,0-0.01,0-0.02c0,0,0,0-0.01,0c-0.03,0.36-0.28,1.18-1.59,2.23l-0.15,8.13l2.95-1.52
	l0.33-8.34C102.95,32.11,101.64,32.35,101.42,31.63z M105.76,29.34c0-0.01,0-0.02-0.01-0.03l0,0c-0.02,0.36-0.27,1.19-1.59,2.24
	l-0.15,8.13l2.95-1.52l0.33-8.34C107.29,29.83,105.98,30.07,105.76,29.34z"/>
<path class="st1" d="M102.02,27.85c0,0,0.02-0.02,0.05-0.04c0.26-0.23,1.46-1.27,1.64-1.37c0.19-0.11,0.64-0.27,0.84-0.27
	c0.2,0,0.2,0,0.2,0l-1.06,1.65"/>
<path class="st1" d="M102.98,28.62l0.03,2.53c0,0-0.33,0.16-0.53,0.08c-0.19-0.08-0.36-0.59-0.36-0.67c0-0.08-0.06-1.6-0.06-1.71
	c0-0.11-0.28-0.48-0.28-0.48l1.17,0.08L102.98,28.62z"/>
<path class="st1" d="M104.12,28.14l-0.06,1.87c0,0,0.89-0.8,1-1.12c0.11-0.32,0.14-0.72,0.14-0.72l0.06-1.2L104.12,28.14z"/>
<path class="st1" d="M100.98,29.53l0.06,1.6c0,0-0.67,1.17-0.86,1.33c-0.19,0.16,0-1.95,0-1.95L100.98,29.53z"/>
<path class="st4" d="M124.36,21.39c0,0,1.41,2.67,1.65,3.26c0.48,1.21,2.27,7.35,2.27,7.35l0.87,17.31l2.18,1.79l-2.56-0.19
	l-9.14-6.14v-1.82l-0.87-1.58l-0.39-18.25l-0.87-0.63"/>
<polyline class="st4" points="112.87,8.09 130.15,23.58 112.48,10.95 "/>
<path class="st1" d="M121.81,33.5l0.26,8.34l2.36,1.52l-0.12-8.13c-1.05-1.04-1.25-1.86-1.27-2.23c0,0,0,0,0,0c0,0.01,0,0.01,0,0.02
	C122.86,33.74,121.81,33.5,121.81,33.5z M118.35,31.21l0.26,8.34l2.36,1.52l-0.12-8.13c-1.05-1.05-1.25-1.88-1.27-2.24l0,0
	c0,0.01,0,0.02-0.01,0.03C119.4,31.45,118.35,31.21,118.35,31.21z"/>
<path class="st1" d="M122.54,29.24c0,0-0.02-0.02-0.04-0.04c-0.21-0.23-1.18-1.27-1.32-1.37c-0.16-0.11-0.52-0.27-0.67-0.27
	c-0.16,0-0.16,0-0.16,0l0.85,1.65"/>
<path class="st1" d="M119.19,27.5l-0.02,2.43c0,0-0.29,0.29-0.43,0.35c-0.14,0.05-0.52-0.24-0.52-0.24v-1.97"/>
<path class="st1" d="M121.77,30.01l-0.02,2.53c0,0,0.27,0.16,0.43,0.08c0.16-0.08,0.29-0.59,0.29-0.67c0-0.08,0.04-1.6,0.04-1.71
	c0-0.11,0.22-0.48,0.22-0.48l-0.94,0.08L121.77,30.01z"/>
<path class="st1" d="M120.85,29.53l0.04,1.87c0,0-0.72-0.8-0.81-1.12c-0.09-0.32-0.11-0.72-0.11-0.72l-0.04-1.2L120.85,29.53z"/>
<path class="st1" d="M123.38,30.91l-0.04,1.6c0,0,0.54,1.17,0.7,1.33c0.16,0.16,0-1.95,0-1.95L123.38,30.91z"/>
<path class="st4" d="M113.6,93.73l-0.75-92.2l-1.06,1.06l-1.81-0.3l-1.06,1.81l-2.11,3.47l-1.66,1.66l-3.32,0.3l-1.36,2.41
	l-3.17,1.96L94,13.59l-1.51,2.56l-0.45,5.58l-1.51,1.36l0.6,0.45l0.6,0.75v1.66l-0.6,0.6l-2.26,23.37l-0.75,1.36l-2.87,34.23
	l-0.08,0.32L113.6,93.73z M93.83,49.01l0.55-18.72c0,0,5.53-7.35,5.85-7.9c0.32-0.55,1.03-1.58,1.03-1.58l6.87,1.11l-0.87,0.63
	l-0.4,18.25L106,42.37v1.82l-12.32,6.08l-0.71-0.95L93.83,49.01z"/>
<polygon class="st4" points="133.14,87.14 131.39,48.86 129.44,48.83 130.8,87.14 "/>
<polygon class="st3" points="105.07,94.59 106,42.37 103.89,43.58 101.58,94.59 "/>
<polygon class="st3" points="91.13,88.19 95.55,21.44 93.94,22.58 92.78,48.03 90.95,52.22 88.65,88.19 "/>
<polyline class="st3" points="112.91,8.12 97.48,19.67 112.92,11.26 "/>
<polyline class="st3" points="94.88,42.06 94.36,49.42 93.32,49.69 93.81,42.46 "/>
<g>
	<path class="st2" d="M143.26,53.58v-8.1h3.21l1.43,5.05l1.43-5.05h3.21v8.1h-2.39v-2.48l0.03-1.26l0.13-1.46h-0.02l-1.47,5.2h-1.85
		l-1.47-5.2h-0.02l0.11,1.19l0.06,1.26v2.75H143.26z"/>
	<path class="st2" d="M162.02,45.48h2.66v4.85c0,0.8,0.16,1.49,1.25,1.49c0.96,0,1.24-0.61,1.24-1.49v-4.85h2.66v4.58
		c0,2.6-1.2,3.74-3.89,3.74c-2.51,0-3.9-0.96-3.9-3.75V45.48z"/>
	<path class="st2" d="M184.79,49.9l-0.1-1.85v-2.58h2.54v8.1h-2.49l-2.89-4.41l0.1,1.85v2.57h-2.54v-8.1h2.49L184.79,49.9z"/>
	<path class="st2" d="M201.87,48.58c-0.08-0.84-0.61-1.33-1.44-1.33c-0.93,0-1.5,0.8-1.5,2.36c0,1.14,0.25,2.21,1.6,2.21
		c0.86,0,1.26-0.6,1.36-1.37h2.55c-0.24,2.09-1.73,3.35-3.87,3.35c-2.68,0-4.3-1.64-4.3-4.28c0-2.62,1.78-4.25,4.04-4.25
		c2.48,0,3.86,1.23,4.07,3.31H201.87z"/>
	<path class="st2" d="M213.67,53.58v-8.1h2.66v8.1H213.67z"/>
	<path class="st2" d="M226.07,53.58v-8.1h6.61v1.89h-3.95v1.16h3.34v1.89h-3.34v1.27h4.11v1.89H226.07z"/>
</g>
<g>
	<path class="st5" d="M11.36,23.07c0-3.16-0.1-3.16-3.03-3.64v-0.7h15.29l0.1,4.72h-0.89c0-2.55-1.37-3.22-3.45-3.22h-2.49
		c-1.6,0-2.01,0.13-2.01,1.66v6.35h3.86c2.24,0,2.43-1.4,2.62-2.46h0.89v6.7h-0.89c0-1.72-0.7-2.74-2.62-2.74h-3.86v10.47h-3.51
		V23.07z"/>
	<path class="st5" d="M28.24,22.95c0-2.68-0.1-2.71-3.19-3.13v-0.7l6.7-0.73v21.84h-3.51V22.95z"/>
	<path class="st5" d="M37.44,23.07c0-3.16-0.06-3.16-3.03-3.64v-0.7h7.85c2.39,0,9,0,9,5.71c0,3.64-2.36,4.85-4.88,5.27l5.87,10.5
		h-3.67l-5.65-9.93h-1.98v9.93h-3.51V23.07z M40.95,28.79h1.82c2.07,0,4.98-0.58,4.98-4.15c0-3.45-1.98-4.41-4.66-4.41
		c-2.14,0-2.14,0.57-2.14,2.87V28.79z"/>
	<path class="st5" d="M66.55,21.32c-0.86-0.41-3.22-1.44-5.71-1.44c-1.69,0-3.06,0.99-3.06,3.1c0,4.92,10.38,4.47,10.38,11.3
		c0,4.57-3.61,6.29-8.01,6.29c-2.46,0-4.92-0.67-5.59-0.83v-2.59c0.99,0.57,3.54,1.92,6.1,1.92c2.01,0,3.99-0.83,3.99-3.73
		c0-5.17-10.37-4.69-10.37-11.43c0-3.51,2.68-5.52,7.18-5.52c2.2,0,4.28,0.41,5.11,0.57V21.32z"/>
	<path class="st5" d="M75.52,20.23h-2.2c-2.52,0-3.26,0.8-3.45,3.13h-0.89l0.13-4.63h16.34l0.13,4.72h-0.89
		c0-2.46-1.02-3.22-3.48-3.22h-2.17v19.98h-3.51V20.23z"/>
</g>
<g>
	<path class="st5" d="M143.06,23.07c0-3.16-0.06-3.16-3.03-3.64v-0.7h9.48c3.67,0,7.57,0.86,7.57,5.17c0,3.13-2.27,4.34-3.83,4.85
		v0.06c2.27,0.45,4.92,1.63,4.92,5.68c0,5.71-6.48,5.71-9.1,5.71h-6V23.07z M146.57,28.12h2.14c2.75,0,4.85-0.89,4.85-4.05
		c0-2.87-1.63-3.83-4.53-3.83c-1.92,0-2.46,0.1-2.46,1.66V28.12z M146.57,37.41c0,1.31,1.31,1.31,3.06,1.31
		c3.51,0,5.01-1.56,5.01-4.82c0-3.16-2.36-4.28-5.17-4.28h-2.9V37.41z"/>
	<path class="st5" d="M165.73,22.82c0.19-0.54,0.54-1.66,0.54-1.88c0-1.28-1.18-1.31-2.46-1.5v-0.7h6l7.79,21.48h-3.32l-2.39-6.64
		h-8.14l-2.39,6.64h-1.98L165.73,22.82z M164.3,32.08h7.05l-3.64-9.32L164.3,32.08z"/>
	<path class="st5" d="M180.86,23.07c0-3.16-0.06-3.16-3.06-3.64v-0.7h9.96c3.93,0,6.48,2.14,6.48,5.91c0,6.03-4.79,6.03-8.75,6.03
		h-1.12v9.55h-3.51V23.07z M184.37,29.17h1.66c2.52,0,4.69-0.83,4.69-4.66c0-3.58-1.69-4.28-4.53-4.28c-1.72,0-1.82,0.61-1.82,1.91
		V29.17z"/>
	<path class="st5" d="M201.68,20.23h-2.2c-2.52,0-3.26,0.8-3.45,3.13h-0.89l0.13-4.63h16.34l0.13,4.72h-0.89
		c0-2.46-1.02-3.22-3.48-3.22h-2.17v19.98h-3.51V20.23z"/>
	<path class="st5" d="M214.8,22.95c0-2.68-0.1-2.71-3.19-3.13v-0.7l6.7-0.73v21.84h-3.51V22.95z"/>
	<path class="st5" d="M234.75,21.32c-0.86-0.41-3.22-1.44-5.71-1.44c-1.69,0-3.06,0.99-3.06,3.1c0,4.92,10.37,4.47,10.37,11.3
		c0,4.56-3.61,6.29-8.01,6.29c-2.46,0-4.91-0.67-5.59-0.83v-2.59c0.99,0.57,3.54,1.92,6.1,1.92c2.01,0,3.99-0.83,3.99-3.73
		c0-5.17-10.37-4.69-10.37-11.43c0-3.51,2.68-5.52,7.18-5.52c2.2,0,4.28,0.41,5.11,0.57V21.32z"/>
	<path class="st5" d="M243.72,20.23h-2.2c-2.52,0-3.26,0.8-3.45,3.13h-0.89l0.13-4.63h16.34l0.13,4.72h-0.89
		c0-2.46-1.02-3.22-3.48-3.22h-2.17v19.98h-3.51V20.23z"/>
</g>
</svg>
